<svg width="128" height="128" viewBox="0 0 128 128" fill="none" xmlns="http://www.w3.org/2000/svg">
<rect width="128" height="128" fill="#161730"/>
<path d="M73.7527 27.1369L73.6314 27.1221H73.5092H35.3328H33.547L33.3455 28.8965L33.0359 31.6242L32.8536 33.2293L34.3845 33.7451L41.1184 36.0141V92.8572L34.3503 95.1856L32.8327 95.7077L33.0137 97.3024L33.3234 100.03L33.5276 101.829L35.3377 101.804L49.7097 101.61L64.0375 101.804L65.9221 101.83L66.0593 99.9501L66.2584 97.2224L66.3703 95.6893L64.9175 95.1867L58.1904 92.8597V70.7822H66.1659H66.3999L66.6276 70.7282C68.8339 70.2047 72.8019 69.2106 76.2054 68.3508C77.9099 67.9201 79.4773 67.522 80.6186 67.2316C81.1892 67.0864 81.6534 66.9681 81.975 66.8861L82.3459 66.7914L82.4426 66.7667L82.4674 66.7604L82.4736 66.7588L82.4752 66.7584L82.4756 66.7583C82.4757 66.7582 82.4758 66.7582 81.9805 64.8205L82.4758 66.7582L83.2454 66.5615L83.6703 65.8904L93.69 50.0653L94.3121 49.0828L93.7659 48.0561L83.7462 29.2219L83.2573 28.3028L82.224 28.1761L73.7527 27.1369ZM75.9079 54.7313L64.1061 62.7893L58.2126 61.6876V36.3563L64.0819 35.5944L75.9189 43.2385L79.1159 48.9925L75.9079 54.7313Z" stroke="#FF0080" stroke-width="4"/>
</svg>
