<svg width="242" height="169" viewBox="0 0 242 169" fill="none" xmlns="http://www.w3.org/2000/svg">
<path d="M83.7369 110.71C83.7369 112.549 82.5368 113.266 81.5706 113.266C80.3082 113.266 79.6848 112.377 79.6848 111.037V103.4H77.8926V111.801C77.8926 113.671 78.9368 114.637 80.8537 114.637C82.007 114.637 83.0511 114.092 83.6434 113.094H83.7057V114.419H85.607C85.5447 113.655 85.4979 112.892 85.4979 112.128V103.4H83.7057V110.71H83.7369Z" fill="black"/>
<path d="M96.5319 114.418V106.782C96.5319 104.6 95.9397 103.182 93.5864 103.182C92.1682 103.182 91.3422 103.571 90.6409 104.818H90.563V103.4H88.6616C88.724 104.163 88.7707 104.927 88.7707 105.691V114.418H90.563V107.888C90.563 106.377 90.8435 104.631 92.8072 104.631C94.3345 104.631 94.7553 105.597 94.7553 106.766V114.403H96.5319V114.418Z" fill="black"/>
<path d="M105.322 108.465C105.322 110.694 105.322 113.172 103.311 113.172C101.067 113.172 101.067 110.771 101.067 109.12C101.067 106.174 101.332 104.647 103.249 104.647C105.228 104.647 105.322 107 105.322 108.465ZM105.322 104.522H105.259C104.651 103.649 103.888 103.197 102.844 103.197C99.2903 103.197 99.1968 106.361 99.1968 109.104C99.1968 113.951 100.989 114.637 102.75 114.637C103.903 114.637 104.667 114.138 105.275 113.109H105.322V114.418H107.114V98.6777H105.322V104.522Z" fill="black"/>
<path d="M116.636 114.418V107.218H122.138V105.473H116.636V100.408H122.45V98.6777H114.642V114.418H116.636Z" fill="black"/>
<path d="M127.935 113.171C126.08 113.171 125.628 111.878 125.628 108.309C125.628 105.301 126.564 104.647 127.935 104.647C129.306 104.647 130.242 105.301 130.242 108.309C130.257 111.894 129.79 113.171 127.935 113.171ZM127.935 114.636C130.273 114.636 132.127 113.935 132.127 109.073C132.127 105.847 131.753 103.182 127.935 103.182C124.117 103.182 123.743 105.847 123.743 109.073C123.758 113.951 125.597 114.636 127.935 114.636Z" fill="black"/>
<path d="M136.71 103.4H134.917V114.418H136.71V107.919C136.71 106.439 137.208 104.927 139.188 104.927C139.515 104.927 139.827 104.989 140.154 105.036V103.182C138.408 103.182 137.489 103.369 136.756 105.052H136.71V103.4Z" fill="black"/>
<path d="M149.099 111.284C149.099 107.933 143.598 107.964 143.598 106.032C143.598 105.065 144.346 104.551 145.297 104.551C146.434 104.551 147.042 105.159 147.027 106.312H149.021C149.177 104.13 147.494 103.195 145.53 103.195C142.429 103.195 141.728 105.05 141.728 106.203C141.728 109.492 147.229 109.538 147.229 111.502C147.229 112.64 146.403 113.185 145.328 113.185C143.52 113.185 143.504 111.705 143.504 111.066H141.478C141.416 113.59 142.897 114.635 145.281 114.635C147.432 114.635 149.099 113.699 149.099 111.284Z" fill="black"/>
<path d="M158.964 106.938C159.073 104.475 157.78 103.182 155.582 103.182C151.764 103.182 151.39 105.847 151.39 109.073C151.39 113.935 153.245 114.636 155.582 114.636C156.814 114.636 159.12 113.857 159.058 110.756H157.188C157.25 112.751 156.003 113.171 155.598 113.171C153.743 113.171 153.291 111.878 153.291 108.309C153.291 105.301 154.227 104.647 155.598 104.647C156.284 104.647 157.172 105.13 157.125 106.938H158.964Z" fill="black"/>
<path d="M169.702 114.418V106.61C169.702 104.117 168.658 103.182 166.788 103.182C165.354 103.182 164.512 103.525 163.795 104.818H163.718V98.6621H161.925V114.418H163.718V107.935C163.718 106.08 164.169 104.647 165.962 104.647C167.489 104.647 167.925 105.613 167.925 106.953V114.418H169.702Z" fill="black"/>
<path d="M178.742 110.71C178.742 112.549 177.542 113.266 176.575 113.266C175.313 113.266 174.705 112.377 174.705 111.037V103.4H172.913V111.801C172.913 113.671 173.957 114.637 175.874 114.637C177.027 114.637 178.071 114.092 178.664 113.094H178.726V114.419H180.627C180.565 113.655 180.518 112.892 180.518 112.128V103.4H178.726V110.71H178.742Z" fill="black"/>
<path d="M191.521 114.418V106.782C191.521 104.6 190.929 103.182 188.576 103.182C187.157 103.182 186.331 103.571 185.63 104.818H185.552V103.4H183.651C183.713 104.163 183.76 104.927 183.76 105.691V114.418H185.552V107.888C185.552 106.377 185.833 104.631 187.796 104.631C189.324 104.631 189.745 105.597 189.745 106.766V114.403H191.521V114.418Z" fill="black"/>
<path d="M200.357 108.854C200.357 110.382 200.42 112.938 198.269 112.938C196.929 112.938 196.118 112.112 196.118 108.574C196.118 107.109 196.181 104.662 198.222 104.662C200.466 104.678 200.357 107.218 200.357 108.854ZM200.326 104.756H200.279C199.781 103.68 198.861 103.182 197.708 103.182C196.82 103.182 194.264 103.509 194.264 108.574C194.264 111.847 194.856 114.418 197.833 114.418C198.799 114.418 199.796 113.92 200.248 113.047H200.311V115.338C200.311 116.475 199.64 117.239 198.394 117.239C197.412 117.239 196.742 116.662 196.71 115.649H194.7C194.544 117.675 196.212 118.595 198.035 118.595C200.451 118.595 202.103 118.003 202.103 115.54V103.415H200.311V104.756H200.326Z" fill="black"/>
<path d="M77.1289 80.0228V81.3787H78.8277V91.0412H80.6199V81.3787H82.8485V80.0228H80.6199V78.1526C80.6199 77.2643 80.9472 76.4539 82.8485 76.5786V75.3006C82.5836 75.2539 82.3654 75.2383 81.9914 75.2383C80.4017 75.2383 78.8277 75.6747 78.8277 77.9033V80.0384H77.1289V80.0228Z" fill="black"/>
<path d="M87.5554 75.9082H85.4982V78.168H87.5554V75.9082ZM91.3893 75.9082H89.3321V78.168H91.3893V75.9082ZM90.4542 87.3318C90.4542 89.1708 89.2542 89.8877 88.2879 89.8877C87.0255 89.8877 86.4177 88.9838 86.4177 87.6591V80.0226H84.6255V88.4228C84.6255 90.2929 85.6697 91.2592 87.5866 91.2592C88.7399 91.2592 89.784 90.7137 90.3763 89.7163H90.4386V91.041H92.3399C92.2776 90.2773 92.2309 89.5137 92.2309 88.75V80.0226H90.4386V87.3318H90.4542Z" fill="black"/>
<path d="M97.3269 80.0209H95.5347V91.0393H97.3269V84.5405C97.3269 83.0599 97.8256 81.5482 99.8205 81.5482C100.148 81.5482 100.444 81.6106 100.787 81.6573V79.8027C99.0412 79.8027 98.1217 79.9897 97.3893 81.6729H97.3425V80.0209H97.3269Z" fill="black"/>
<path d="M108.22 83.6698H110.355C112.413 83.6698 113.956 84.1062 113.956 86.6153C113.956 87.7686 113.192 89.2959 111.057 89.2959H108.22V83.6698ZM108.22 77.0307H111.057C112.74 77.0307 113.472 78.106 113.472 79.4152C113.472 80.9425 112.709 81.9087 111.135 81.9243H108.205V77.0307H108.22ZM111.275 91.0414C113.067 91.0414 116.013 90.6518 116.013 86.6153C116.013 84.449 115.031 83.1087 112.787 82.8438V82.7347C114.813 82.2827 115.483 80.958 115.483 78.9944C115.483 78.6982 115.389 77.7476 114.844 76.906C114.252 76.0333 113.519 75.3008 111.337 75.3008H106.21V91.057H111.275V91.0414Z" fill="black"/>
<path d="M120.673 80.023H118.881V91.0414H120.673V80.023ZM118.771 77.2177H120.782V75.3008H118.771V77.2177Z" fill="black"/>
<path d="M125.738 75.3008H123.946V91.0414H125.738V75.3008Z" fill="black"/>
<path d="M134.652 85.088C134.652 87.3166 134.652 89.7946 132.642 89.7946C130.398 89.7946 130.398 87.3945 130.398 85.7426C130.398 82.797 130.662 81.2697 132.579 81.2697C134.574 81.2697 134.652 83.623 134.652 85.088ZM134.652 81.1451H134.59C133.982 80.2723 133.218 79.8203 132.174 79.8203C128.621 79.8203 128.527 82.9841 128.527 85.727C128.527 90.5738 130.32 91.2752 132.081 91.2752C133.234 91.2752 133.998 90.7764 134.621 89.7478H134.668V91.057H136.46V75.3008H134.668V81.1451H134.652Z" fill="black"/>
<path d="M145.624 87.3327C145.624 89.1717 144.424 89.8886 143.457 89.8886C142.195 89.8886 141.587 88.9847 141.587 87.66V80.0234H139.795V88.4236C139.795 90.2938 140.839 91.26 142.756 91.26C143.909 91.26 144.969 90.7146 145.546 89.7172H145.608V91.0419H147.494C147.431 90.2782 147.385 89.5145 147.385 88.7509V80.0234H145.608V87.3327H145.624Z" fill="black"/>
<path d="M158.419 91.0393V83.4028C158.419 81.2209 157.827 79.8027 155.474 79.8027C154.055 79.8027 153.229 80.1923 152.528 81.4391H152.435V80.0209H150.533C150.596 80.7846 150.642 81.5482 150.642 82.3119V91.0393H152.419V84.5093C152.419 82.9976 152.699 81.2677 154.663 81.2677C156.19 81.2677 156.611 82.234 156.611 83.4028V91.0393H158.419Z" fill="black"/>
<path d="M167.255 85.4756C167.255 87.0029 167.318 89.5588 165.152 89.5588C163.811 89.5588 163.016 88.7328 163.016 85.1951C163.016 83.7301 163.079 81.2833 165.12 81.2833C167.365 81.2989 167.255 83.8392 167.255 85.4756ZM167.209 81.3768H167.162C166.663 80.3014 165.744 79.8027 164.59 79.8027C163.702 79.8027 161.146 80.13 161.146 85.1951C161.146 88.4679 161.738 91.0393 164.715 91.0393C165.681 91.0393 166.679 90.5406 167.131 89.6679H167.193V91.9588C167.193 93.0965 166.507 93.8602 165.276 93.8602C164.294 93.8602 163.609 93.2835 163.593 92.2705H161.583C161.427 94.2966 163.094 95.2161 164.918 95.2161C167.333 95.2161 168.97 94.6238 168.97 92.1614V80.0365H167.178V81.3768H167.209Z" fill="black"/>
<path d="M79.9968 60.2928H82.1319C84.1891 60.2928 85.732 60.7292 85.732 63.2384C85.732 64.3916 84.9683 65.9189 82.8332 65.9189H79.9968V60.2928ZM79.9968 53.6537H82.8332C84.5164 53.6537 85.2489 54.7291 85.2489 56.0382C85.2489 57.5655 84.4852 58.5318 82.9112 58.5473H79.9812V53.6537H79.9968ZM83.0514 67.6644C84.8437 67.6644 87.7892 67.2748 87.7892 63.2384C87.7892 61.0721 86.8073 59.7318 84.5631 59.4668V59.3578C86.5891 58.9058 87.2749 57.5811 87.2749 55.6174C87.2749 55.3213 87.1814 54.3706 86.6359 53.5291C86.0437 52.6563 85.3112 51.9238 83.1293 51.9238H78.002V67.68H83.0514V67.6644Z" fill="black"/>
<path d="M96.2203 63.9557C96.2203 65.7947 95.0203 66.5116 94.054 66.5116C92.7917 66.5116 92.1839 65.6077 92.1839 64.283V56.6465H90.3916V65.0467C90.3916 66.9168 91.4358 67.8831 93.3527 67.8831C94.506 67.8831 95.5501 67.3376 96.1424 66.3402H96.2047V67.6649H98.106C98.0437 66.9012 97.997 66.1376 97.997 65.3739V56.6465H96.2047V63.9557H96.2203Z" fill="black"/>
<path d="M109 67.6624V60.0259C109 57.844 108.407 56.4258 106.054 56.4258C104.636 56.4258 103.81 56.8154 103.109 58.0622H103.015V56.644H101.114C101.176 57.4076 101.223 58.1713 101.223 58.9349V67.6624H103.015V61.1324C103.015 59.6207 103.296 57.8908 105.259 57.8908C106.787 57.8908 107.207 58.857 107.207 60.0259V67.6624H109Z" fill="black"/>
<path d="M117.789 61.711C117.789 63.9397 117.789 66.4176 115.779 66.4176C113.535 66.4176 113.535 64.0176 113.535 62.3656C113.535 59.4201 113.8 57.8928 115.717 57.8928C117.711 57.8928 117.789 60.2461 117.789 61.711ZM117.789 57.7681H117.727C117.119 56.8954 116.356 56.4434 115.311 56.4434C111.758 56.4434 111.665 59.6071 111.665 62.35C111.665 67.1969 113.457 67.8982 115.218 67.8982C116.371 67.8982 117.135 67.3995 117.743 66.3709H117.789V67.68H119.582V51.9238H117.789V57.7681Z" fill="black"/>
<path d="M124.21 61.3818C124.226 58.3272 125.177 57.7817 126.299 57.7817C127.608 57.7817 128.496 58.1713 128.496 61.3818H124.21ZM130.413 62.7376V61.8026C130.413 58.1557 129.634 56.4414 126.486 56.4414C122.667 56.4414 122.293 59.1064 122.293 62.3324C122.293 67.1949 124.148 67.8962 126.486 67.8962C128.792 67.8962 130.304 66.7897 130.32 64.3429H128.356C128.294 65.4494 127.655 66.4312 126.439 66.4312C125.036 66.4312 124.21 65.8234 124.21 62.7376H130.413Z" fill="black"/>
<path d="M140.279 64.5299C140.279 61.1792 134.777 61.2103 134.777 59.2778C134.777 58.3116 135.525 57.7973 136.476 57.7973C137.614 57.7973 138.221 58.4051 138.206 59.5584H140.201C140.357 57.3765 138.673 56.4414 136.71 56.4414C133.608 56.4414 132.923 58.296 132.923 59.4493C132.923 62.7376 138.424 62.7844 138.424 64.7481C138.424 65.8858 137.598 66.4312 136.523 66.4312C134.715 66.4312 134.684 64.9507 134.684 64.3117H132.658C132.595 66.8364 134.076 67.8962 136.46 67.8962C138.611 67.8806 140.279 66.9455 140.279 64.5299Z" fill="black"/>
<path d="M150.252 67.6643V60.246C150.252 59.8252 150.33 58.7342 150.86 58.2979C151.328 57.9082 151.53 57.8771 152.216 57.8771C153.665 57.8771 153.962 58.9057 153.962 60.0122V67.6487H155.754V59.2641C155.754 56.6615 153.899 56.4121 152.746 56.4121C151.749 56.4121 150.736 56.6459 150.128 57.8303C149.707 56.8329 148.554 56.4121 147.556 56.4121C146.278 56.4121 145.328 56.8329 144.813 58.0018H144.767V56.6303H142.865C142.928 57.3939 142.974 58.1576 142.974 58.9213V67.6487H144.767V60.2304C144.767 59.8096 144.844 59.155 145.187 58.6096C145.452 58.1888 146.185 57.8771 146.73 57.8771C148.164 57.8771 148.476 58.9057 148.476 60.0122V67.6487H150.252V67.6643Z" fill="black"/>
<path d="M160.71 56.646H158.917V67.6644H160.71V56.646ZM158.808 53.8408H160.819V51.9238H158.808V53.8408Z" fill="black"/>
<path d="M171.728 67.6624V60.0259C171.728 57.844 171.136 56.4258 168.783 56.4258C167.364 56.4258 166.538 56.8154 165.837 58.0622H165.744V56.644H163.842C163.905 57.4076 163.951 58.1713 163.951 58.9349V67.6624H165.744V61.1324C165.744 59.6207 166.024 57.8908 167.988 57.8908C169.515 57.8908 169.936 58.857 169.936 60.0259V67.6624H171.728Z" fill="black"/>
<path d="M176.668 56.646H174.876V67.6644H176.668V56.646ZM174.783 53.8408H176.793V51.9238H174.783V53.8408Z" fill="black"/>
<path d="M186.845 64.5299C186.845 61.1792 181.344 61.2103 181.344 59.2778C181.344 58.3116 182.092 57.7973 183.043 57.7973C184.18 57.7973 184.788 58.4051 184.773 59.5584H186.768C186.923 57.3765 185.24 56.4414 183.277 56.4414C180.175 56.4414 179.474 58.296 179.474 59.4493C179.474 62.7376 184.975 62.7844 184.975 64.7481C184.975 65.8858 184.149 66.4312 183.074 66.4312C181.251 66.4312 181.235 64.9507 181.235 64.3117H179.209C179.147 66.8364 180.627 67.8962 183.012 67.8962C185.178 67.8806 186.845 66.9455 186.845 64.5299Z" fill="black"/>
<path d="M188.03 56.6448V58.0006H189.838V65.8398C189.838 67.1021 190.601 67.8035 192.3 67.8035C192.892 67.8035 193.484 67.6788 194.061 67.632V66.245C193.671 66.2917 193.391 66.3385 193.251 66.3385C191.614 66.3385 191.614 65.4346 191.614 64.7488V58.0006H194.014V56.6448H191.614V53.7148L189.822 54.5253V56.6448H188.03Z" fill="black"/>
<path d="M197.459 61.3818C197.474 58.3272 198.425 57.7817 199.563 57.7817C200.872 57.7817 201.76 58.1713 201.76 61.3818H197.459ZM203.646 62.7376V61.8026C203.646 58.1557 202.867 56.4414 199.718 56.4414C195.9 56.4414 195.526 59.1064 195.526 62.3324C195.526 67.1949 197.381 67.8962 199.718 67.8962C202.025 67.8962 203.537 66.7897 203.552 64.3429H201.589C201.526 65.4494 200.887 66.4312 199.672 66.4312C198.269 66.4312 197.443 65.8234 197.443 62.7376H203.646Z" fill="black"/>
<path d="M208.088 56.644H206.295V67.6624H208.088V61.1635C208.088 59.683 208.586 58.1713 210.581 58.1713C210.908 58.1713 211.205 58.2336 211.547 58.2804V56.4258C209.802 56.4258 208.882 56.6128 208.15 58.296H208.103V56.644H208.088Z" fill="black"/>
<path d="M215.225 56.646H213.433V67.6644H215.225V56.646ZM213.324 53.8408H215.334V51.9238H213.324V53.8408Z" fill="black"/>
<path d="M224.202 63.9557C224.202 65.7947 223.002 66.5116 222.051 66.5116C220.789 66.5116 220.181 65.6077 220.181 64.283V56.6465H218.389V65.0467C218.389 66.9168 219.433 67.8831 221.35 67.8831C222.503 67.8831 223.547 67.3376 224.14 66.3402H224.202V67.6649H226.103C226.041 66.9012 225.994 66.1376 225.994 65.3739V56.6465H224.202V63.9557Z" fill="black"/>
<path d="M236.499 67.6643V60.246C236.499 59.8252 236.592 58.7342 237.106 58.2979C237.589 57.9082 237.776 57.8771 238.462 57.8771C239.912 57.8771 240.208 58.9057 240.208 60.0122V67.6487H242V59.2641C242 56.6615 240.145 56.4121 238.992 56.4121C237.995 56.4121 236.982 56.6459 236.374 57.8303C235.953 56.8329 234.8 56.4121 233.802 56.4121C232.524 56.4121 231.574 56.8329 231.059 58.0018H231.013V56.6303H229.111C229.174 57.3939 229.22 58.1576 229.22 58.9213V67.6487H231.013V60.2304C231.013 59.8096 231.106 59.155 231.433 58.6096C231.698 58.1888 232.431 57.8771 232.992 57.8771C234.426 57.8771 234.737 58.9057 234.737 60.0122V67.6487H236.499V67.6643Z" fill="black"/>
<path d="M57.2739 130.002H64.178V168.979H57.2739V130.002Z" fill="#FFCC00"/>
<path d="M57.2739 90.916H64.178V130.003H57.2739V90.916Z" fill="#FE0000"/>
<path d="M57.2739 52.0781H64.178V91.04H57.2739V52.0781Z" fill="black"/>
<path d="M35.7514 58.6711C35.7514 56.4581 34.1306 54.697 33.5695 54.1983L33.1643 54.2918C33.7722 55.0243 34.8319 56.2711 34.8319 57.9074C34.8319 61.1335 31.4344 63.9232 27.5538 63.9699C27.585 64.2972 27.585 64.5933 27.585 64.8427C27.585 65.2946 27.5538 65.7466 27.5071 66.1985C31.8864 66.1206 35.7514 62.5361 35.7514 58.6711ZM29.6734 85.321C27.7876 85.321 27.3824 85.1184 26.8837 85.1184C26.572 85.1184 26.2603 85.1496 26.2603 85.6015C26.2603 85.9132 26.6188 86.3652 26.9304 86.6146C27.3668 86.1782 27.9746 86.0847 28.9565 86.0847C29.4084 86.0847 30.0474 86.1782 30.3123 86.2094C30.2812 86.4743 30.2188 86.8328 30.2188 87.3159C30.2188 87.5808 30.2344 87.8769 30.2344 88.2042C30.2344 89.3107 30.0786 89.9029 29.689 90.3549C29.7669 90.4017 30.0006 90.4484 30.1253 90.4484C30.8422 90.4484 31.0292 90.0744 31.0292 88.2042C31.0292 87.6432 31.076 87.1133 31.076 86.973C32.089 87.7367 33.102 89.1081 33.102 90.1055C33.4293 89.9341 33.8189 89.4354 33.8189 89.0614C33.8189 88.3912 32.6968 87.3782 31.4968 86.1626C31.6682 86.1158 32.1046 85.9912 32.4786 85.9912C33.4137 85.9912 34.1774 86.147 34.6137 86.6613C34.7852 86.4743 34.941 85.8977 34.941 85.5704C34.941 85.0093 34.6137 85.0249 34.38 85.0249C33.3825 85.0249 32.1358 85.1808 31.263 85.321C30.9357 84.8846 28.8941 82.1106 28.3642 80.63C28.2084 80.5833 28.0993 80.5365 27.8344 80.5365C27.3356 80.5365 27.211 80.8794 27.0863 81.3469C28.2084 82.7807 29.2993 84.2613 29.6734 85.321ZM18.4368 81.4093C18.3121 80.9417 18.1874 80.5988 17.6887 80.5988C17.4393 80.5988 17.3147 80.6456 17.1588 80.6924C16.6289 82.1729 14.5717 84.947 14.2445 85.3834C13.3561 85.2431 12.1249 85.0873 11.1275 85.0873C10.8937 85.0873 10.5665 85.0717 10.5665 85.6327C10.5665 85.96 10.7067 86.5366 10.8937 86.7236C11.3301 86.2094 12.0938 86.0535 13.0289 86.0535C13.4029 86.0535 13.8393 86.1782 14.0107 86.2249C12.8107 87.4405 11.6886 88.438 11.6886 89.1237C11.6886 89.4977 12.0782 89.9964 12.4055 90.1679C12.4055 89.1705 13.4341 87.8146 14.4315 87.0354C14.4315 87.1756 14.4782 87.6899 14.4782 88.2665C14.4782 90.1367 14.6653 90.5107 15.3821 90.5107C15.5068 90.5107 15.7406 90.464 15.8185 90.4172C15.4289 89.9653 15.2731 89.3886 15.2731 88.2665C15.2731 87.9393 15.2886 87.6432 15.2886 87.3782C15.2886 86.8795 15.2263 86.5366 15.1951 86.2717C15.4757 86.2405 16.099 86.147 16.551 86.147C17.5328 86.147 18.1406 86.2405 18.577 86.6769C18.8887 86.4431 19.2472 85.9756 19.2472 85.6639C19.2472 85.2119 18.9511 85.1808 18.6238 85.1808C18.1251 85.1808 17.7199 85.3834 15.8341 85.3834C16.2237 84.2613 17.3147 82.7807 18.4368 81.4093ZM10.7067 57.9074C10.7067 56.2711 11.7665 55.0399 12.3743 54.2918L11.9691 54.1983C11.3925 54.697 9.78722 56.4581 9.78722 58.6711C9.78722 62.5517 13.699 66.1674 18.1407 66.1985C18.0939 65.7777 18.0627 65.3258 18.0627 64.8427C18.0627 64.5466 18.0783 64.2504 18.0939 63.9699C14.1665 63.9699 10.7067 61.1491 10.7067 57.9074ZM22.6602 54.9152C22.8628 54.4476 23.1278 53.9022 23.1278 53.2944C23.1278 51.6112 21.7251 50.8008 19.855 50.8008C18.8887 50.8008 18.4056 51.1125 18.4056 51.4242C18.4056 51.7359 18.7173 52.4216 18.842 52.6398C19.1848 52.484 19.8082 52.2969 20.1667 52.2969C21.4758 52.2814 22.4265 53.7307 22.6602 54.9152ZM23.5641 52.7489C24.6551 52.9671 25.4031 51.5645 24.359 51.3151C24.4992 51.7671 23.7979 52.0943 23.7979 52.0943C23.7979 52.0943 23.533 51.471 23.8758 51.1281C23.2369 50.8164 23.081 51.1904 23.0654 51.58C23.3304 51.9385 23.5018 52.3281 23.5641 52.7489ZM27.1175 62.3335C27.2889 62.3491 27.4603 62.3491 27.6318 62.3491C30.702 62.3491 33.7566 60.3543 33.7566 57.8139C33.7566 56.4581 33.1488 55.5074 32.3851 54.4476C31.9487 54.5256 31.5435 54.5567 31.2163 54.5567C29.8292 54.5567 29.0656 53.8087 29.0032 53.0762C29.0032 52.4216 29.5331 51.9229 30.3747 51.9229C31.6682 51.9229 34.0215 53.1385 36.406 53.1385C36.1722 53.3099 35.7826 53.497 35.315 53.684C36.7021 54.9308 37.6372 56.6139 37.9956 58.4217L41.6425 64.2504C42.2503 65.2167 43.5438 67.1336 45.4919 68.6298C43.1386 68.6298 41.5645 68.6921 39.5697 65.5284L37.6995 62.5361C37.5592 62.9257 37.3878 63.2998 37.1852 63.6738L40.8944 69.6272C41.5178 70.609 42.7957 72.5104 44.7438 74.0065C42.3905 74.0065 40.832 74.0688 38.8372 70.9051L35.6423 65.7777C35.4086 66.0271 35.1436 66.2765 34.8787 66.5258L39.3983 73.7416C40.0216 74.7234 41.2996 76.6247 43.2633 78.1209C40.91 78.1209 39.3359 78.1832 37.3411 75.0195L32.9462 67.9752C32.6501 68.1622 32.3539 68.3336 32.0578 68.5051L37.419 77.0923C38.0424 78.0741 39.3047 79.9755 41.2684 81.4716C38.9151 81.4716 37.3411 81.5339 35.3618 78.3702L29.876 69.5493C29.5487 69.6739 29.2214 69.7986 28.8785 69.9077L35.128 79.9131C35.7358 80.8794 37.045 82.7963 38.9775 84.2924C36.6242 84.2924 35.0501 84.3548 33.0708 81.1911L26.4161 70.5311L26.2136 70.5623C26.0265 71.1389 25.9019 71.6688 25.9019 72.2143C25.9019 75.565 28.0993 78.5261 30.7331 80.8015C30.5617 80.8794 30.2656 80.895 30.0006 80.895C29.4552 80.895 29.1123 80.8638 28.863 80.817C29.4708 82.2041 30.7955 83.9963 31.45 84.9314C32.3072 84.7756 33.5696 84.6509 34.3955 84.6509C35.2527 84.6509 35.3462 85.1496 35.3462 85.6015C35.3462 86.3808 34.9878 87.0042 34.5514 87.347C34.3955 86.9418 34.0683 86.412 32.4786 86.412H32.3228C32.7903 86.9263 34.2397 88.1107 34.2397 89.0614C34.2397 89.6848 33.554 90.6198 32.6501 90.6198C32.7124 90.4172 32.6968 90.2302 32.6968 90.09C32.6968 89.3263 32.0111 88.4224 31.45 87.799C31.4656 87.986 31.45 87.9704 31.45 88.1886C31.45 89.9965 31.2942 90.838 30.1409 90.838C29.5799 90.838 29.1902 90.5263 29.05 90.4328C29.798 89.7471 29.8292 89.2016 29.8292 88.1886V87.3003C29.8292 87.0665 29.8292 86.7548 29.8604 86.5366C29.4552 86.4743 29.2837 86.4743 28.972 86.4743C28.972 86.4743 27.3356 86.3496 26.946 87.1912C26.5097 86.786 25.8551 86.2094 25.8551 85.5704C25.8551 85.1496 26.0577 84.6821 26.8993 84.6821C27.2266 84.6821 28.224 84.8846 29.0656 84.8846C28.8474 84.3859 27.8344 82.921 26.9616 81.8456C26.8369 82.2508 26.6188 82.7028 26.1668 83.0768C26.1045 82.3911 25.6993 80.2248 24.6239 78.9625C24.4992 79.8196 24.3278 80.6924 24.3278 82.5469C24.3278 87.0509 25.4187 90.3861 27.7097 91.025C27.4136 91.5393 26.7746 92.0225 26.12 92.0225C25.2785 92.0225 24.8265 91.0718 24.359 90.1679C24.1096 90.838 23.4395 92.4588 22.7693 92.4588C22.0992 92.4588 21.429 90.838 21.1797 90.1679C20.7121 91.0718 20.2602 92.0225 19.403 92.0225C18.7485 92.0225 18.1095 91.5549 17.8134 91.025C20.1199 90.3861 21.1953 87.0509 21.1953 82.5469C21.1953 80.6924 21.0238 79.8196 20.8992 78.9625C19.8238 80.2248 19.4186 82.3911 19.3563 83.0768C18.9043 82.7184 18.6861 82.2664 18.5614 81.8456C17.6887 82.921 16.6913 84.3859 16.4575 84.8846C17.2991 84.8846 18.2965 84.6821 18.6238 84.6821C19.4654 84.6821 19.668 85.1496 19.668 85.5704C19.668 86.2094 19.0134 86.786 18.577 87.1912C18.1874 86.3496 16.551 86.4743 16.551 86.4743C16.2393 86.4743 16.0679 86.4743 15.6627 86.5366C15.6938 86.7548 15.7094 87.0665 15.6938 87.3003V88.1886C15.6938 89.2016 15.725 89.7471 16.4731 90.4328C16.3328 90.5263 15.9432 90.838 15.3821 90.838C14.2289 90.838 14.0574 90.012 14.0574 88.1886C14.0574 87.9704 14.0574 87.986 14.073 87.799C13.4964 88.4224 12.8262 89.3263 12.8262 90.09C12.8262 90.2302 12.8107 90.4172 12.873 90.6198C11.9691 90.6198 11.2834 89.6848 11.2834 89.0614C11.2834 88.1107 12.7327 86.9418 13.2003 86.412H13.0444C11.4548 86.412 11.1275 86.9418 10.9717 87.347C10.5509 87.0042 10.1768 86.3808 10.1768 85.6015C10.1768 85.1496 10.2703 84.6509 11.1275 84.6509C11.9535 84.6509 13.2003 84.7756 14.073 84.9314C14.7276 83.9963 16.0523 82.2041 16.6601 80.817C16.4107 80.8638 16.0679 80.895 15.5224 80.895C15.2575 80.895 14.9614 80.8638 14.7899 80.8015C17.4237 78.5261 19.6212 75.565 19.6212 72.2143C19.6212 71.6844 19.4965 71.1389 19.3095 70.5623L19.1069 70.5311L12.4522 81.1911C10.4574 84.3392 8.89889 84.2924 6.5456 84.2924C8.47811 82.7963 9.78722 80.8794 10.395 79.9131L16.6445 69.9077C16.3016 69.7986 15.9744 69.6895 15.6471 69.5493L10.1145 78.4014C8.11965 81.5495 6.56118 81.5028 4.20788 81.5028C6.17156 79.991 7.44951 78.1053 8.05732 77.1234L13.4341 68.5362C13.1224 68.3648 12.8262 68.1934 12.5457 68.0064L8.15082 75.0507C6.15598 78.1988 4.5975 78.152 2.2442 78.152C4.20788 76.6403 5.48583 74.7546 6.09364 73.7727L10.6132 66.557C10.3483 66.3232 10.0989 66.0739 9.84956 65.8089L6.65469 70.9363C4.65984 74.0844 3.10136 74.0377 0.732482 74.0377C2.69616 72.5415 3.97411 70.6402 4.58192 69.6584L8.29109 63.705C8.08848 63.3309 7.91705 62.9569 7.77679 62.5673L5.90662 65.5596C3.91177 68.7077 2.3533 68.6609 0 68.6609C1.94809 67.1648 3.24163 65.2479 3.84943 64.2816L7.49626 58.4529C7.85471 56.6607 8.77422 54.9775 10.1768 53.7152C9.7093 53.5437 9.31968 53.3567 9.08591 53.1697C11.4704 53.1697 13.8237 51.9541 15.1172 51.9541C15.9588 51.9541 16.4887 52.4528 16.4887 53.1073C16.4419 53.8398 15.6783 54.5879 14.2756 54.5879C13.9639 54.5879 13.5587 54.5411 13.1068 54.4788C12.3587 55.5386 11.7353 56.4892 11.7353 57.8451C11.7353 60.401 14.7899 62.3803 17.8757 62.3803C18.0471 62.3803 18.2186 62.3647 18.39 62.3647C18.9978 60.2919 20.2913 58.936 21.3355 57.6113C20.0887 57.1594 18.7017 55.9749 18.7017 55.4451C18.8576 55.3515 21.242 56.0996 21.4914 56.162C21.5381 56.1775 21.6005 56.1775 21.6472 56.162C21.9433 56.0685 22.1771 55.6477 22.1771 55.6009C21.9277 55.5542 20.4316 55.3671 19.403 54.9931C18.6238 54.7126 18.2342 54.1983 18.2342 53.9957C18.4835 53.9489 19.4342 54.4476 20.8212 54.4476C21.3355 54.4476 21.429 54.432 21.9433 54.3697C21.5849 53.5125 20.9147 52.7957 20.1511 52.7957C19.8394 52.7957 19.1848 52.9827 18.6238 53.2632C18.2342 52.6554 17.8913 51.8761 17.8913 51.4398C17.8913 50.9255 18.39 50.3333 19.8238 50.3333C20.229 50.3333 20.603 50.3644 20.9459 50.4268C21.2264 50.4735 21.4602 50.5359 21.7096 50.645C21.694 50.6138 21.6784 50.5359 21.6784 50.4579C21.6784 50.2553 21.8498 50.0527 22.52 50.0527C23.6888 50.0527 24.8888 50.4424 26.3694 50.4424C26.759 50.4424 27.0084 50.4268 27.2266 50.3333C27.133 50.6294 26.7123 51.0657 26.3382 51.4086C26.572 51.7359 27.1798 52.4995 27.1798 53.7463C27.1798 55.7568 25.8551 57.4087 25.8551 59.4348C25.9019 60.6348 26.8369 61.6945 27.1175 62.3335Z" fill="black"/>
<path d="M82.677 5.91451C82.677 4.76124 82.1939 4.12226 80.9315 4.12226C80.5419 4.12226 79.1237 4.1846 79.1237 6.25738V9.59251C79.1237 11.7432 79.747 12.2887 80.9315 12.2887C81.8354 12.2887 82.4276 12.0393 82.6926 11.8523V8.8912H80.8847V7.80027H83.9549V12.5848C83.1445 13.0212 82.2094 13.3173 80.9471 13.3173C78.8587 13.3173 77.8457 12.2419 77.8457 9.51459V6.28854C77.8457 4.32486 78.8587 3.0625 80.9471 3.0625C83.0822 3.0625 84.0796 3.84174 84.0017 5.89892H82.677V5.91451Z" fill="black"/>
<path d="M86.2925 13.1172V3.2832H91.3575V4.37413H87.5393V7.53784H91.0926V8.62877H87.5393V12.0418H91.4355V13.1328H86.2925V13.1172Z" fill="black"/>
<path d="M93.0254 13.1172V3.2832H97.9034V4.37413H94.2722V7.53784H97.7164V8.62877H94.2722V13.1328H93.0254V13.1172Z" fill="black"/>
<path d="M99.1187 9.51628V6.29024C99.1187 4.32656 100.132 3.06419 102.22 3.06419C104.308 3.06419 105.321 4.32656 105.321 6.29024V9.51628C105.321 12.2436 104.308 13.319 102.22 13.319C100.132 13.319 99.1187 12.2436 99.1187 9.51628ZM101.675 2.11352H100.397V0.695312H101.675V2.11352ZM104.028 9.57862V6.24348C104.028 4.1863 102.61 4.10837 102.22 4.10837C101.83 4.10837 100.412 4.17071 100.412 6.24348V9.57862C100.412 11.7293 101.036 12.2748 102.22 12.2748C103.404 12.2748 104.028 11.7293 104.028 9.57862ZM104.075 2.11352H102.797V0.695312H104.075V2.11352Z" fill="black"/>
<path d="M108.719 8.5976V13.1328H107.472V3.2832H110.87C112.615 3.2832 113.223 4.5144 113.223 5.74559C113.223 6.89886 112.584 7.78719 111.415 7.9898V8.02097C112.553 8.1924 112.958 8.58202 113.02 10.5613C113.036 10.9821 113.176 12.525 113.363 13.1328H112.054C111.696 12.447 111.789 11.1691 111.68 9.85997C111.587 8.65994 110.62 8.61319 110.199 8.61319H108.719V8.5976ZM108.719 7.50667H110.605C111.509 7.50667 111.945 6.72743 111.945 5.87027C111.945 5.16896 111.587 4.37413 110.62 4.37413H108.719V7.50667Z" fill="black"/>
<path d="M115.109 3.2832H118.132C119.379 3.2832 120.283 3.73516 120.782 4.77934C121.171 5.60533 121.218 7.56901 121.218 7.89629C121.218 10.0002 121.031 11.2158 120.61 11.8704C120.08 12.712 119.083 13.1328 117.369 13.1328H115.109V3.2832ZM116.371 12.0262H117.556C119.301 12.0262 119.94 11.3717 119.94 9.08073V7.08588C119.94 5.09103 119.332 4.35855 118.023 4.35855H116.371V12.0262Z" fill="black"/>
<path d="M123.416 13.1172V3.2832H128.481V4.37413H124.662V7.53784H128.216V8.62877H124.662V12.0418H128.558V13.1328H123.416V13.1172Z" fill="black"/>
<path d="M131.457 8.5976V13.1328H130.195V3.2832H133.592C135.338 3.2832 135.946 4.5144 135.946 5.74559C135.946 6.89886 135.307 7.78719 134.153 7.9898V8.02097C135.275 8.1924 135.696 8.58202 135.759 10.5613C135.774 10.9821 135.914 12.525 136.101 13.1328H134.792C134.434 12.447 134.512 11.1691 134.403 9.85997C134.309 8.65994 133.343 8.61319 132.922 8.61319H131.457V8.5976ZM131.457 7.50667H133.343C134.247 7.50667 134.683 6.72743 134.683 5.87027C134.683 5.16896 134.325 4.37413 133.359 4.37413H131.473V7.50667H131.457Z" fill="black"/>
<path d="M143.333 3.2832V4.37413H140.745V13.1328H139.499V4.37413H136.912V3.2832H143.333Z" fill="black"/>
<path d="M151.079 13.1171H149.582L146.73 3.26758H148.086L150.346 11.9327H150.377L152.684 3.26758H153.962L151.079 13.1171Z" fill="black"/>
<path d="M155.208 9.51459V6.28854C155.208 4.32486 156.221 3.0625 158.31 3.0625C160.398 3.0625 161.395 4.32486 161.395 6.28854V9.51459C161.395 12.2419 160.382 13.3173 158.31 13.3173C156.206 13.3173 155.208 12.2419 155.208 9.51459ZM160.102 9.57693V6.24179C160.102 4.1846 158.684 4.10668 158.294 4.10668C157.904 4.10668 156.486 4.16902 156.486 6.24179V9.57693C156.486 11.7276 157.11 12.2731 158.294 12.2731C159.478 12.2731 160.102 11.7276 160.102 9.57693Z" fill="black"/>
<path d="M164.762 13.1172H163.593V3.2832H165.619L168.097 11.5431H168.128L170.637 3.2832H172.71V13.1328H171.463V4.37413H171.432L168.674 13.1328H167.489L164.793 4.37413H164.762V13.1172Z" fill="black"/>
</svg>
