<svg width="179" height="107" viewBox="0 0 179 107" fill="none" xmlns="http://www.w3.org/2000/svg">
<path d="M67.1961 1.00744L67.1355 1H67.0744H11.4831H10.5902L10.4895 1.8872L10.0386 5.85921L9.94748 6.66175L10.7129 6.91966L21.8204 10.6623V96.1734L10.6747 100.008L9.91587 100.269L10.0064 101.066L10.4573 105.038L10.5594 105.938L11.4644 105.925L32.4184 105.642L53.3079 105.925L54.2502 105.938L54.3188 104.998L54.6087 101.026L54.6647 100.26L53.9383 100.008L42.8554 96.1747V60.7518H56.3813H56.4983L56.6121 60.7247C59.809 59.9662 65.5734 58.5222 70.5321 57.2694C73.0128 56.6427 75.2941 56.0633 76.9552 55.6406C77.7858 55.4292 78.4614 55.257 78.9293 55.1377L79.4689 55L79.6096 54.964L79.6456 54.9549L79.6546 54.9525L79.6569 54.9519L79.6575 54.9518C79.6576 54.9518 79.6577 54.9517 79.4101 53.9829L79.6577 54.9517L80.0425 54.8534L80.255 54.5178L94.8453 31.4739L95.1563 30.9826L94.8832 30.4693L80.2929 3.04348L80.0485 2.58396L79.5318 2.52059L67.1961 1.00744ZM72.0171 40.6171L53.8075 53.0501L42.8876 51.0089V10.8541L53.7954 9.4382L72.0226 21.2089L77.4279 30.9375L72.0171 40.6171Z" stroke="white" stroke-width="2"/>
<rect y="64" width="179" height="24" fill="#161730"/>
<path d="M12.71 83.018H22.79V81.272H15.68C17.624 80.102 18.758 79.31 19.676 78.536C21.692 76.826 22.61 75.278 22.61 73.388C22.61 70.706 20.738 69.032 17.498 69.032C13.988 69.032 11.99 70.976 11.99 74.018C11.99 74.432 12.026 74.666 12.17 75.206H13.934C13.79 74.648 13.754 74.45 13.754 74.126C13.754 72.056 15.158 70.652 17.534 70.652C19.568 70.652 20.756 71.696 20.756 73.442C20.756 74.738 20.108 75.926 18.398 77.384C17.3 78.32 15.77 79.364 12.71 81.272V83.018ZM30.4393 83.288C34.4533 83.288 36.0733 79.94 36.0733 76.16C36.0733 72.38 34.4533 69.032 30.4393 69.032C26.4253 69.032 24.7693 72.38 24.7693 76.16C24.7693 79.94 26.4253 83.288 30.4393 83.288ZM30.4213 81.632C27.7393 81.632 26.5513 79.148 26.5513 76.16C26.5513 73.172 27.7393 70.688 30.4213 70.688C33.1033 70.688 34.2913 73.172 34.2913 76.16C34.2913 79.148 33.1033 81.632 30.4213 81.632ZM38.7784 83.018H48.8584V81.272H41.7484C43.6924 80.102 44.8264 79.31 45.7444 78.536C47.7604 76.826 48.6784 75.278 48.6784 73.388C48.6784 70.706 46.8064 69.032 43.5664 69.032C40.0564 69.032 38.0584 70.976 38.0584 74.018C38.0584 74.432 38.0944 74.666 38.2384 75.206H40.0024C39.8584 74.648 39.8224 74.45 39.8224 74.126C39.8224 72.056 41.2264 70.652 43.6024 70.652C45.6364 70.652 46.8244 71.696 46.8244 73.442C46.8244 74.738 46.1764 75.926 44.4664 77.384C43.3684 78.32 41.8384 79.364 38.7784 81.272V83.018ZM56.5077 83.288C60.5217 83.288 62.1417 79.94 62.1417 76.16C62.1417 72.38 60.5217 69.032 56.5077 69.032C52.4937 69.032 50.8377 72.38 50.8377 76.16C50.8377 79.94 52.4937 83.288 56.5077 83.288ZM56.4897 81.632C53.8077 81.632 52.6197 79.148 52.6197 76.16C52.6197 73.172 53.8077 70.688 56.4897 70.688C59.1717 70.688 60.3597 73.172 60.3597 76.16C60.3597 79.148 59.1717 81.632 56.4897 81.632ZM74.9564 83.018C78.9524 83.036 80.8244 80.372 80.8244 76.232C80.8244 71.498 78.3764 69.32 74.6324 69.32H69.6464L69.6284 83L74.9564 83.018ZM71.4284 81.29V71.03H74.5964C77.5484 71.03 78.9344 73.01 78.9344 76.142C78.9344 79.688 77.2064 81.29 74.5964 81.29H71.4284ZM86.7928 83.288C89.4208 83.288 90.8068 81.542 90.9868 80.264H89.2588C89.0068 80.93 88.1428 81.776 86.7928 81.776C85.1548 81.776 84.2368 80.642 84.0748 78.896L90.9868 78.878V77.402C90.9868 74.9 89.2048 73.262 86.7208 73.262C83.9308 73.262 82.2928 75.332 82.2928 78.248C82.2928 81.11 83.8588 83.288 86.7928 83.288ZM84.0928 77.492C84.0928 75.62 85.2988 74.774 86.7028 74.774C88.1068 74.774 89.2588 75.62 89.2588 77.492H84.0928ZM104.374 73.262C103.114 73.262 101.8 73.694 100.792 75.152C100.288 73.874 99.2436 73.262 97.7856 73.262C96.4896 73.262 95.3016 73.73 94.5456 74.972V73.55H92.7996V83H94.5456V77.852C94.5456 75.908 95.7336 74.774 97.3536 74.774C98.3796 74.774 99.3876 75.242 99.3876 77.366V83H101.134V77.852C101.134 75.908 102.322 74.774 103.942 74.774C104.968 74.774 105.976 75.242 105.976 77.366V83H107.722V77.24C107.722 74.54 106.48 73.262 104.374 73.262ZM114.094 83.288C116.848 83.288 118.648 81.092 118.648 78.266C118.648 75.35 116.848 73.262 114.094 73.262C111.34 73.262 109.504 75.35 109.504 78.266C109.504 81.092 111.34 83.288 114.094 83.288ZM114.076 81.776C112.258 81.776 111.25 80.372 111.25 78.266C111.25 76.178 112.258 74.774 114.076 74.774C115.894 74.774 116.902 76.178 116.902 78.266C116.902 80.372 115.894 81.776 114.076 81.776ZM128.096 83H130.058L133.784 71.192L137.51 83H139.472L143.27 69.32H141.254L138.482 80.858L134.936 69.32H132.632L129.086 80.858L126.314 69.32H124.298L128.096 83ZM147.578 83.288C150.206 83.288 151.592 81.542 151.772 80.264H150.044C149.792 80.93 148.928 81.776 147.578 81.776C145.94 81.776 145.022 80.642 144.86 78.896L151.772 78.878V77.402C151.772 74.9 149.99 73.262 147.506 73.262C144.716 73.262 143.078 75.332 143.078 78.248C143.078 81.11 144.644 83.288 147.578 83.288ZM144.878 77.492C144.878 75.62 146.084 74.774 147.488 74.774C148.892 74.774 150.044 75.62 150.044 77.492H144.878ZM157.545 83.288C160.173 83.288 161.559 81.542 161.739 80.264H160.011C159.759 80.93 158.895 81.776 157.545 81.776C155.907 81.776 154.989 80.642 154.827 78.896L161.739 78.878V77.402C161.739 74.9 159.957 73.262 157.473 73.262C154.683 73.262 153.045 75.332 153.045 78.248C153.045 81.11 154.611 83.288 157.545 83.288ZM154.845 77.492C154.845 75.62 156.051 74.774 157.455 74.774C158.859 74.774 160.011 75.62 160.011 77.492H154.845ZM170.932 83L166.864 78.266L170.572 73.55H168.556L165.298 77.69V69.32H163.552V83H165.298V78.788L168.916 83H170.932Z" fill="white"/>
</svg>
