<svg width="179" height="107" viewBox="0 0 179 107" fill="none" xmlns="http://www.w3.org/2000/svg">
<path d="M67.1961 1.00744L67.1355 1H67.0744H11.4831H10.5902L10.4895 1.8872L10.0386 5.85921L9.94748 6.66175L10.7129 6.91966L21.8204 10.6623V96.1734L10.6747 100.008L9.91587 100.269L10.0064 101.066L10.4573 105.038L10.5594 105.938L11.4644 105.925L32.4184 105.642L53.3079 105.925L54.2502 105.938L54.3188 104.998L54.6087 101.026L54.6647 100.26L53.9383 100.008L42.8554 96.1747V60.7518H56.3813H56.4983L56.6121 60.7247C59.809 59.9662 65.5734 58.5222 70.5321 57.2694C73.0128 56.6427 75.2941 56.0633 76.9552 55.6406C77.7858 55.4292 78.4614 55.257 78.9293 55.1377L79.4689 55L79.6096 54.964L79.6456 54.9549L79.6546 54.9525L79.6569 54.9519L79.6575 54.9518C79.6576 54.9518 79.6577 54.9517 79.4101 53.9829L79.6577 54.9517L80.0425 54.8534L80.255 54.5178L94.8453 31.4739L95.1563 30.9826L94.8832 30.4693L80.2929 3.04348L80.0485 2.58396L79.5318 2.52059L67.1961 1.00744ZM72.0171 40.6171L53.8075 53.0501L42.8876 51.0089V10.8541L53.7954 9.4382L72.0226 21.2089L77.4279 30.9375L72.0171 40.6171Z" stroke="white" stroke-width="2"/>
<rect y="64" width="179" height="24" fill="#161730"/>
</svg>
