<svg width="660" height="372" viewBox="0 0 660 372" fill="none" xmlns="http://www.w3.org/2000/svg">
<rect width="660" height="371.25" fill="black"/>
<path d="M350.406 105.245L350.345 105.237H350.284H294.693H293.8L293.699 106.125L293.249 110.097L293.157 110.899L293.923 111.157L305.03 114.9V200.411L293.885 204.245L293.126 204.506L293.216 205.304L293.667 209.276L293.769 210.175L294.674 210.163L315.628 209.879L336.518 210.163L337.46 210.175L337.529 209.236L337.819 205.264L337.875 204.497L337.148 204.246L326.065 200.412V164.989H339.591H339.708L339.822 164.962C343.019 164.204 348.783 162.759 353.742 161.507C356.223 160.88 358.504 160.301 360.165 159.878C360.996 159.667 361.671 159.494 362.139 159.375L362.679 159.237L362.82 159.201L362.856 159.192L362.865 159.19L362.867 159.189L362.867 159.189C362.868 159.189 362.868 159.189 362.62 158.22L362.868 159.189L363.252 159.091L363.465 158.755L378.055 135.711L378.366 135.22L378.093 134.707L363.503 107.281L363.258 106.821L362.742 106.758L350.406 105.245ZM355.227 144.854L337.018 157.287L326.098 155.246V115.091L337.005 113.676L355.233 125.446L360.638 135.175L355.227 144.854Z" stroke="white" stroke-width="2"/>
<path d="M256.92 238.616H267V236.87H259.89C261.834 235.7 262.968 234.908 263.886 234.134C265.902 232.424 266.82 230.876 266.82 228.986C266.82 226.304 264.948 224.63 261.708 224.63C258.198 224.63 256.2 226.574 256.2 229.616C256.2 230.03 256.236 230.264 256.38 230.804H258.144C258 230.246 257.964 230.048 257.964 229.724C257.964 227.654 259.368 226.25 261.744 226.25C263.778 226.25 264.966 227.294 264.966 229.04C264.966 230.336 264.318 231.524 262.608 232.982C261.51 233.918 259.98 234.962 256.92 236.87V238.616ZM274.649 238.886C278.663 238.886 280.283 235.538 280.283 231.758C280.283 227.978 278.663 224.63 274.649 224.63C270.635 224.63 268.979 227.978 268.979 231.758C268.979 235.538 270.635 238.886 274.649 238.886ZM274.631 237.23C271.949 237.23 270.761 234.746 270.761 231.758C270.761 228.77 271.949 226.286 274.631 226.286C277.313 226.286 278.501 228.77 278.501 231.758C278.501 234.746 277.313 237.23 274.631 237.23ZM282.988 238.616H293.068V236.87H285.958C287.902 235.7 289.036 234.908 289.954 234.134C291.97 232.424 292.888 230.876 292.888 228.986C292.888 226.304 291.016 224.63 287.776 224.63C284.266 224.63 282.268 226.574 282.268 229.616C282.268 230.03 282.304 230.264 282.448 230.804H284.212C284.068 230.246 284.032 230.048 284.032 229.724C284.032 227.654 285.436 226.25 287.812 226.25C289.846 226.25 291.034 227.294 291.034 229.04C291.034 230.336 290.386 231.524 288.676 232.982C287.578 233.918 286.048 234.962 282.988 236.87V238.616ZM300.718 238.886C304.732 238.886 306.352 235.538 306.352 231.758C306.352 227.978 304.732 224.63 300.718 224.63C296.704 224.63 295.048 227.978 295.048 231.758C295.048 235.538 296.704 238.886 300.718 238.886ZM300.7 237.23C298.018 237.23 296.83 234.746 296.83 231.758C296.83 228.77 298.018 226.286 300.7 226.286C303.382 226.286 304.57 228.77 304.57 231.758C304.57 234.746 303.382 237.23 300.7 237.23ZM319.166 238.616C323.162 238.634 325.034 235.97 325.034 231.83C325.034 227.096 322.586 224.918 318.842 224.918H313.856L313.838 238.598L319.166 238.616ZM315.638 236.888V226.628H318.806C321.758 226.628 323.144 228.608 323.144 231.74C323.144 235.286 321.416 236.888 318.806 236.888H315.638ZM331.003 238.886C333.631 238.886 335.017 237.14 335.197 235.862H333.469C333.217 236.528 332.353 237.374 331.003 237.374C329.365 237.374 328.447 236.24 328.285 234.494L335.197 234.476V233C335.197 230.498 333.415 228.86 330.931 228.86C328.141 228.86 326.503 230.93 326.503 233.846C326.503 236.708 328.069 238.886 331.003 238.886ZM328.303 233.09C328.303 231.218 329.509 230.372 330.913 230.372C332.317 230.372 333.469 231.218 333.469 233.09H328.303ZM348.584 228.86C347.324 228.86 346.01 229.292 345.002 230.75C344.498 229.472 343.454 228.86 341.996 228.86C340.7 228.86 339.512 229.328 338.756 230.57V229.148H337.01V238.598H338.756V233.45C338.756 231.506 339.944 230.372 341.564 230.372C342.59 230.372 343.598 230.84 343.598 232.964V238.598H345.344V233.45C345.344 231.506 346.532 230.372 348.152 230.372C349.178 230.372 350.186 230.84 350.186 232.964V238.598H351.932V232.838C351.932 230.138 350.69 228.86 348.584 228.86ZM358.304 238.886C361.058 238.886 362.858 236.69 362.858 233.864C362.858 230.948 361.058 228.86 358.304 228.86C355.55 228.86 353.714 230.948 353.714 233.864C353.714 236.69 355.55 238.886 358.304 238.886ZM358.286 237.374C356.468 237.374 355.46 235.97 355.46 233.864C355.46 231.776 356.468 230.372 358.286 230.372C360.104 230.372 361.112 231.776 361.112 233.864C361.112 235.97 360.104 237.374 358.286 237.374ZM372.306 238.598H374.268L377.994 226.79L381.72 238.598H383.682L387.48 224.918H385.464L382.692 236.456L379.146 224.918H376.842L373.296 236.456L370.524 224.918H368.508L372.306 238.598ZM391.788 238.886C394.416 238.886 395.802 237.14 395.982 235.862H394.254C394.002 236.528 393.138 237.374 391.788 237.374C390.15 237.374 389.232 236.24 389.07 234.494L395.982 234.476V233C395.982 230.498 394.2 228.86 391.716 228.86C388.926 228.86 387.288 230.93 387.288 233.846C387.288 236.708 388.854 238.886 391.788 238.886ZM389.088 233.09C389.088 231.218 390.294 230.372 391.698 230.372C393.102 230.372 394.254 231.218 394.254 233.09H389.088ZM401.755 238.886C404.383 238.886 405.769 237.14 405.949 235.862H404.221C403.969 236.528 403.105 237.374 401.755 237.374C400.117 237.374 399.199 236.24 399.037 234.494L405.949 234.476V233C405.949 230.498 404.167 228.86 401.683 228.86C398.893 228.86 397.255 230.93 397.255 233.846C397.255 236.708 398.821 238.886 401.755 238.886ZM399.055 233.09C399.055 231.218 400.261 230.372 401.665 230.372C403.069 230.372 404.221 231.218 404.221 233.09H399.055ZM415.142 238.598L411.074 233.864L414.782 229.148H412.766L409.508 233.288V224.918H407.762V238.598H409.508V234.386L413.126 238.598H415.142Z" fill="white"/>
<path d="M315.44 209.162V212.907L318.552 210.825L355.092 186.38L357.577 184.718L355.092 183.056L318.552 158.611L315.44 156.529V160.273V165.088V209.162Z" fill="#FF0080" stroke="black" stroke-width="4"/>
</svg>
