<?xml version="1.0" encoding="UTF-8" standalone="no"?>
<!DOCTYPE svg PUBLIC "-//W3C//DTD SVG 1.1//EN" "http://www.w3.org/Graphics/SVG/1.1/DTD/svg11.dtd">
<svg width="100%" height="100%" viewBox="0 0 683 335" version="1.1" xmlns="http://www.w3.org/2000/svg" xmlns:xlink="http://www.w3.org/1999/xlink" xml:space="preserve" xmlns:serif="http://www.serif.com/" style="fill-rule:evenodd;clip-rule:evenodd;stroke-miterlimit:1.5;">
    <g id="ArtBoard1" transform="matrix(1.00294,0,0,1.00601,-57.1674,-147.883)">
        <rect x="57" y="147" width="681" height="333" style="fill:none;"/>
        <g id="Logo-Minimal-Blau" serif:id="Logo Minimal Blau" transform="matrix(0.997072,0,0,0.99403,2.16105,9.82388)">
            <path d="M611,321L688,321L688,310C688,305.226 686.104,300.648 682.728,297.272C679.352,293.896 674.774,292 670,292C657.923,292 642.077,292 630,292C625.226,292 620.648,293.896 617.272,297.272C613.896,300.648 612,305.226 612,310L612,334C612,343.941 620.059,352 630,352C646.374,352 668,352 668,352L668,336" style="fill:none;stroke:rgb(216,216,184);stroke-width:12px;"/>
            <path d="M647,274L548,274C544.817,274 541.765,275.264 539.515,277.515C537.264,279.765 536,282.817 536,286C536,289.861 536,294.139 536,298C536,304.627 541.373,310 548,310L566,310C577.598,310 587,319.402 587,331C587,331 587,331 587,331C587,342.598 577.598,352 566,352C512.632,352 376,352 376,352" style="fill:none;stroke:rgb(212,222,173);stroke-width:12px;"/>
            <path d="M468,331L450,331L450,292C450,287.226 451.896,282.648 455.272,279.272C458.648,275.896 463.226,274 468,274C475.884,274 485.116,274 493,274C497.774,274 502.352,275.896 505.728,279.272C509.104,282.648 511,287.226 511,292C511,308.703 511,331 511,331L530,331" style="fill:none;stroke:rgb(185,219,181);stroke-width:12px;"/>
            <g transform="matrix(1.03214,0,0,1,-13.1462,0)">
                <path d="M429,292C429,287.226 427.163,282.648 423.892,279.272C420.622,275.896 416.186,274 411.561,274L369.439,274C364.814,274 360.378,275.896 357.108,279.272C353.837,282.648 352,287.226 352,292L352,313C352,317.774 353.837,322.352 357.108,325.728C360.378,329.104 364.814,331 369.439,331L411.561,331C416.186,331 420.622,329.104 423.892,325.728C427.163,322.352 429,317.774 429,313L429,292Z" style="fill:none;stroke:rgb(134,210,201);stroke-width:11.81px;"/>
            </g>
            <path d="M387,252L292,252" style="fill:none;stroke:rgb(82,192,205);stroke-width:12px;"/>
            <path d="M313,189L328,189L328,314.334C328,324.324 331.968,333.904 339.032,340.968C346.096,348.032 355.676,352 365.666,352C371.696,352 376,352 376,352" style="fill:none;stroke:rgb(82,192,205);stroke-width:12px;"/>
            <g transform="matrix(1,0,0,1,55,138)">
                <path d="M159.886,208L232.519,208C240.65,208 247.296,201.511 247.489,193.382C247.489,193.381 247.489,193.381 247.489,193.38C247.586,189.335 246.046,185.422 243.219,182.527C240.393,179.632 236.518,178 232.472,178C225.83,178 218.756,178 213,178C203.059,178 195,169.941 195,160L195,147.987C195,143.216 196.895,138.641 200.268,135.268C203.641,131.895 208.216,130 212.987,130L237,130L237,142L212.987,142C211.399,142 209.876,142.631 208.753,143.753C207.631,144.876 207,146.399 207,147.987L207,160C207,163.314 209.686,166 213,166C218.756,166 225.83,166 232.472,166C239.75,166 246.72,168.936 251.805,174.143C256.89,179.351 259.659,186.389 259.486,193.665C259.486,193.666 259.486,193.667 259.486,193.668C259.137,208.311 247.167,220 232.519,220L154.054,220L159.886,208Z" style="fill:rgb(37,140,193);"/>
            </g>
            <path d="M158.407,425.608L235.097,267.809C241.58,254.468 255.111,246 269.943,246L292,246L292,258L269.943,258C259.705,258 250.365,263.845 245.89,273.054L163.593,442.392L144.023,431.209L149.977,420.791L158.407,425.608Z" style="fill:rgb(78,121,203);"/>
            <g transform="matrix(1,0,0,1,55,138)">
                <path d="M139,185.891L152.311,211.208L141.689,216.792L136.659,207.225C138.165,203.787 139,199.991 139,196L139,185.891ZM119,147.852L119,173.638L93.425,124.996L84.683,129.367L79.317,118.633L98.575,109.004L119,147.852Z" style="fill:rgb(78,121,203);"/>
            </g>
            <g transform="matrix(1,0,0,0.993902,0,1.15244)">
                <path d="M190,207.11C190,193.774 179.255,182.963 166,182.963L96,182.963L96,359.037L166,359.037C179.255,359.037 190,348.226 190,334.89L190,207.11ZM108,195.037L108,346.963L166,346.963C172.627,346.963 178,341.558 178,334.89L178,207.11C178,200.442 172.627,195.037 166,195.037L108,195.037Z" style="fill:rgb(69,93,180);"/>
            </g>
        </g>
        <g id="Nubsies-Blau" serif:id="Nubsies Blau" transform="matrix(0.997072,0,0,0.99403,2.16105,9.82388)">
            <path d="M167,219L184,219" style="fill:none;stroke:rgb(69,93,180);stroke-width:12px;"/>
            <path d="M118,300L102,300" style="fill:none;stroke:rgb(69,93,180);stroke-width:12px;"/>
            <path d="M217,278L233,286" style="fill:none;"/>
            <path d="M214.317,283.367L230.317,291.367L235.683,280.633L219.683,272.633L214.317,283.367Z" style="fill:rgb(78,121,203);"/>
            <path d="M281,328L281,311" style="fill:none;stroke:rgb(37,140,193);stroke-width:12px;"/>
            <path d="M262,369L262,352" style="fill:none;stroke:rgb(37,140,193);stroke-width:12px;"/>
            <path d="M313,291L329,291" style="fill:none;stroke:rgb(82,192,205);stroke-width:12px;"/>
            <path d="M417,369L417,352" style="fill:none;stroke:rgb(212,222,173);stroke-width:12px;"/>
            <g transform="matrix(1,0,0,1,65,0)">
                <path d="M417,369L417,352" style="fill:none;stroke:rgb(212,222,173);stroke-width:12px;"/>
            </g>
            <g transform="matrix(1,0,0,1,130,0)">
                <path d="M417,369L417,352" style="fill:none;stroke:rgb(212,222,173);stroke-width:12px;"/>
            </g>
            <g transform="matrix(1,0,0,1,164,-98)">
                <path d="M417,369L417,352" style="fill:none;stroke:rgb(212,222,173);stroke-width:12px;"/>
            </g>
        </g>
    </g>
</svg>
