<svg width="182" height="107" viewBox="0 0 182 107" fill="none" xmlns="http://www.w3.org/2000/svg">
<path d="M59.1961 1.00744L59.1355 1H59.0744H3.48312H2.59022L2.4895 1.8872L2.03859 5.85921L1.94748 6.66175L2.7129 6.91966L13.8204 10.6623V96.1734L2.67468 100.008L1.91586 100.269L2.00638 101.066L2.4573 105.038L2.55939 105.938L3.46444 105.925L24.4184 105.642L45.3079 105.925L46.2502 105.938L46.3188 104.998L46.6087 101.026L46.6647 100.26L45.9383 100.008L34.8554 96.1747V60.7518H48.3813H48.4983L48.6121 60.7247C51.809 59.9662 57.5734 58.5222 62.5321 57.2694C65.0128 56.6427 67.2941 56.0633 68.9552 55.6406C69.7858 55.4292 70.4614 55.257 70.9293 55.1377L71.4689 55L71.6096 54.964L71.6456 54.9549L71.6546 54.9525L71.6569 54.9519L71.6575 54.9518C71.6576 54.9518 71.6577 54.9518 71.4101 53.9829L71.6577 54.9518L72.0425 54.8534L72.255 54.5178L86.8453 31.4739L87.1563 30.9826L86.8832 30.4693L72.2929 3.04348L72.0485 2.58396L71.5318 2.52059L59.1961 1.00744ZM64.0171 40.6171L45.8075 53.0501L34.8876 51.0089V10.8541L45.7954 9.4382L64.0226 21.2089L69.4279 30.9375L64.0171 40.6171Z" stroke="white" stroke-width="2"/>
<rect x="3" y="64" width="179" height="24" fill="#161730"/>
<path d="M4.71 83.018H14.79V81.272H7.68C9.624 80.102 10.758 79.31 11.676 78.536C13.692 76.826 14.61 75.278 14.61 73.388C14.61 70.706 12.738 69.032 9.498 69.032C5.988 69.032 3.99 70.976 3.99 74.018C3.99 74.432 4.026 74.666 4.17 75.206H5.934C5.79 74.648 5.754 74.45 5.754 74.126C5.754 72.056 7.158 70.652 9.534 70.652C11.568 70.652 12.756 71.696 12.756 73.442C12.756 74.738 12.108 75.926 10.398 77.384C9.3 78.32 7.77 79.364 4.71 81.272V83.018ZM22.4393 83.288C26.4533 83.288 28.0733 79.94 28.0733 76.16C28.0733 72.38 26.4533 69.032 22.4393 69.032C18.4253 69.032 16.7693 72.38 16.7693 76.16C16.7693 79.94 18.4253 83.288 22.4393 83.288ZM22.4213 81.632C19.7393 81.632 18.5513 79.148 18.5513 76.16C18.5513 73.172 19.7393 70.688 22.4213 70.688C25.1033 70.688 26.2913 73.172 26.2913 76.16C26.2913 79.148 25.1033 81.632 22.4213 81.632ZM30.7784 83.018H40.8584V81.272H33.7484C35.6924 80.102 36.8264 79.31 37.7444 78.536C39.7604 76.826 40.6784 75.278 40.6784 73.388C40.6784 70.706 38.8064 69.032 35.5664 69.032C32.0564 69.032 30.0584 70.976 30.0584 74.018C30.0584 74.432 30.0944 74.666 30.2384 75.206H32.0024C31.8584 74.648 31.8224 74.45 31.8224 74.126C31.8224 72.056 33.2264 70.652 35.6024 70.652C37.6364 70.652 38.8244 71.696 38.8244 73.442C38.8244 74.738 38.1764 75.926 36.4664 77.384C35.3684 78.32 33.8384 79.364 30.7784 81.272V83.018ZM48.5077 83.288C52.5217 83.288 54.1417 79.94 54.1417 76.16C54.1417 72.38 52.5217 69.032 48.5077 69.032C44.4937 69.032 42.8377 72.38 42.8377 76.16C42.8377 79.94 44.4937 83.288 48.5077 83.288ZM48.4897 81.632C45.8077 81.632 44.6197 79.148 44.6197 76.16C44.6197 73.172 45.8077 70.688 48.4897 70.688C51.1717 70.688 52.3597 73.172 52.3597 76.16C52.3597 79.148 51.1717 81.632 48.4897 81.632ZM66.9564 83.018C70.9524 83.036 72.8244 80.372 72.8244 76.232C72.8244 71.498 70.3764 69.32 66.6324 69.32H61.6464L61.6284 83L66.9564 83.018ZM63.4284 81.29V71.03H66.5964C69.5484 71.03 70.9344 73.01 70.9344 76.142C70.9344 79.688 69.2064 81.29 66.5964 81.29H63.4284ZM78.7928 83.288C81.4208 83.288 82.8068 81.542 82.9868 80.264H81.2588C81.0068 80.93 80.1428 81.776 78.7928 81.776C77.1548 81.776 76.2368 80.642 76.0748 78.896L82.9868 78.878V77.402C82.9868 74.9 81.2048 73.262 78.7208 73.262C75.9308 73.262 74.2928 75.332 74.2928 78.248C74.2928 81.11 75.8588 83.288 78.7928 83.288ZM76.0928 77.492C76.0928 75.62 77.2988 74.774 78.7028 74.774C80.1068 74.774 81.2588 75.62 81.2588 77.492H76.0928ZM96.3736 73.262C95.1136 73.262 93.7996 73.694 92.7916 75.152C92.2876 73.874 91.2436 73.262 89.7856 73.262C88.4896 73.262 87.3016 73.73 86.5456 74.972V73.55H84.7996V83H86.5456V77.852C86.5456 75.908 87.7336 74.774 89.3536 74.774C90.3796 74.774 91.3876 75.242 91.3876 77.366V83H93.1336V77.852C93.1336 75.908 94.3216 74.774 95.9416 74.774C96.9676 74.774 97.9756 75.242 97.9756 77.366V83H99.7216V77.24C99.7216 74.54 98.4796 73.262 96.3736 73.262ZM106.094 83.288C108.848 83.288 110.648 81.092 110.648 78.266C110.648 75.35 108.848 73.262 106.094 73.262C103.34 73.262 101.504 75.35 101.504 78.266C101.504 81.092 103.34 83.288 106.094 83.288ZM106.076 81.776C104.258 81.776 103.25 80.372 103.25 78.266C103.25 76.178 104.258 74.774 106.076 74.774C107.894 74.774 108.902 76.178 108.902 78.266C108.902 80.372 107.894 81.776 106.076 81.776ZM120.096 83H122.058L125.784 71.192L129.51 83H131.472L135.27 69.32H133.254L130.482 80.858L126.936 69.32H124.632L121.086 80.858L118.314 69.32H116.298L120.096 83ZM139.578 83.288C142.206 83.288 143.592 81.542 143.772 80.264H142.044C141.792 80.93 140.928 81.776 139.578 81.776C137.94 81.776 137.022 80.642 136.86 78.896L143.772 78.878V77.402C143.772 74.9 141.99 73.262 139.506 73.262C136.716 73.262 135.078 75.332 135.078 78.248C135.078 81.11 136.644 83.288 139.578 83.288ZM136.878 77.492C136.878 75.62 138.084 74.774 139.488 74.774C140.892 74.774 142.044 75.62 142.044 77.492H136.878ZM149.545 83.288C152.173 83.288 153.559 81.542 153.739 80.264H152.011C151.759 80.93 150.895 81.776 149.545 81.776C147.907 81.776 146.989 80.642 146.827 78.896L153.739 78.878V77.402C153.739 74.9 151.957 73.262 149.473 73.262C146.683 73.262 145.045 75.332 145.045 78.248C145.045 81.11 146.611 83.288 149.545 83.288ZM146.845 77.492C146.845 75.62 148.051 74.774 149.455 74.774C150.859 74.774 152.011 75.62 152.011 77.492H146.845ZM162.932 83L158.864 78.266L162.572 73.55H160.556L157.298 77.69V69.32H155.552V83H157.298V78.788L160.916 83H162.932Z" fill="white"/>
</svg>
