<svg width="179" height="107" viewBox="0 0 179 107" fill="none" xmlns="http://www.w3.org/2000/svg">
<rect x="71" y="64" width="37" height="29" fill="#161730"/>
<path d="M104.196 1.00744L104.135 1H104.074H48.4831H47.5902L47.4895 1.8872L47.0386 5.85921L46.9475 6.66175L47.7129 6.91966L58.8204 10.6623V96.1734L47.6747 100.008L46.9159 100.269L47.0064 101.066L47.4573 105.038L47.5594 105.938L48.4644 105.925L69.4184 105.642L90.3079 105.925L91.2502 105.938L91.3188 104.998L91.6087 101.026L91.6647 100.26L90.9383 100.008L79.8554 96.1747V60.7518H93.3813H93.4983L93.6121 60.7247C96.809 59.9662 102.573 58.5222 107.532 57.2694C110.013 56.6427 112.294 56.0633 113.955 55.6406C114.786 55.4292 115.461 55.257 115.929 55.1377L116.469 55L116.61 54.964L116.646 54.9549L116.655 54.9525L116.657 54.9519L116.658 54.9518C116.658 54.9518 116.658 54.9517 116.41 53.9829L116.658 54.9517L117.043 54.8534L117.255 54.5178L131.845 31.4739L132.156 30.9826L131.883 30.4693L117.293 3.04348L117.048 2.58396L116.532 2.52059L104.196 1.00744ZM109.017 40.6171L90.8075 53.0501L79.8876 51.0089V10.8541L90.7954 9.4382L109.023 21.2089L114.428 30.9375L109.017 40.6171Z" stroke="white" stroke-width="2"/>
<rect y="64" width="179" height="24" fill="#161730"/>
<path d="M10.71 83.018H20.79V81.272H13.68C15.624 80.102 16.758 79.31 17.676 78.536C19.692 76.826 20.61 75.278 20.61 73.388C20.61 70.706 18.738 69.032 15.498 69.032C11.988 69.032 9.99 70.976 9.99 74.018C9.99 74.432 10.026 74.666 10.17 75.206H11.934C11.79 74.648 11.754 74.45 11.754 74.126C11.754 72.056 13.158 70.652 15.534 70.652C17.568 70.652 18.756 71.696 18.756 73.442C18.756 74.738 18.108 75.926 16.398 77.384C15.3 78.32 13.77 79.364 10.71 81.272V83.018ZM28.4393 83.288C32.4533 83.288 34.0733 79.94 34.0733 76.16C34.0733 72.38 32.4533 69.032 28.4393 69.032C24.4253 69.032 22.7693 72.38 22.7693 76.16C22.7693 79.94 24.4253 83.288 28.4393 83.288ZM28.4213 81.632C25.7393 81.632 24.5513 79.148 24.5513 76.16C24.5513 73.172 25.7393 70.688 28.4213 70.688C31.1033 70.688 32.2913 73.172 32.2913 76.16C32.2913 79.148 31.1033 81.632 28.4213 81.632ZM36.7784 83.018H46.8584V81.272H39.7484C41.6924 80.102 42.8264 79.31 43.7444 78.536C45.7604 76.826 46.6784 75.278 46.6784 73.388C46.6784 70.706 44.8064 69.032 41.5664 69.032C38.0564 69.032 36.0584 70.976 36.0584 74.018C36.0584 74.432 36.0944 74.666 36.2384 75.206H38.0024C37.8584 74.648 37.8224 74.45 37.8224 74.126C37.8224 72.056 39.2264 70.652 41.6024 70.652C43.6364 70.652 44.8244 71.696 44.8244 73.442C44.8244 74.738 44.1764 75.926 42.4664 77.384C41.3684 78.32 39.8384 79.364 36.7784 81.272V83.018ZM54.5077 83.288C58.5217 83.288 60.1417 79.94 60.1417 76.16C60.1417 72.38 58.5217 69.032 54.5077 69.032C50.4937 69.032 48.8377 72.38 48.8377 76.16C48.8377 79.94 50.4937 83.288 54.5077 83.288ZM54.4897 81.632C51.8077 81.632 50.6197 79.148 50.6197 76.16C50.6197 73.172 51.8077 70.688 54.4897 70.688C57.1717 70.688 58.3597 73.172 58.3597 76.16C58.3597 79.148 57.1717 81.632 54.4897 81.632ZM72.9564 83.018C76.9524 83.036 78.8244 80.372 78.8244 76.232C78.8244 71.498 76.3764 69.32 72.6324 69.32H67.6464L67.6284 83L72.9564 83.018ZM69.4284 81.29V71.03H72.5964C75.5484 71.03 76.9344 73.01 76.9344 76.142C76.9344 79.688 75.2064 81.29 72.5964 81.29H69.4284ZM84.7928 83.288C87.4208 83.288 88.8068 81.542 88.9868 80.264H87.2588C87.0068 80.93 86.1428 81.776 84.7928 81.776C83.1548 81.776 82.2368 80.642 82.0748 78.896L88.9868 78.878V77.402C88.9868 74.9 87.2048 73.262 84.7208 73.262C81.9308 73.262 80.2928 75.332 80.2928 78.248C80.2928 81.11 81.8588 83.288 84.7928 83.288ZM82.0928 77.492C82.0928 75.62 83.2988 74.774 84.7028 74.774C86.1068 74.774 87.2588 75.62 87.2588 77.492H82.0928ZM102.374 73.262C101.114 73.262 99.7996 73.694 98.7916 75.152C98.2876 73.874 97.2436 73.262 95.7856 73.262C94.4896 73.262 93.3016 73.73 92.5456 74.972V73.55H90.7996V83H92.5456V77.852C92.5456 75.908 93.7336 74.774 95.3536 74.774C96.3796 74.774 97.3876 75.242 97.3876 77.366V83H99.1336V77.852C99.1336 75.908 100.322 74.774 101.942 74.774C102.968 74.774 103.976 75.242 103.976 77.366V83H105.722V77.24C105.722 74.54 104.48 73.262 102.374 73.262ZM112.094 83.288C114.848 83.288 116.648 81.092 116.648 78.266C116.648 75.35 114.848 73.262 112.094 73.262C109.34 73.262 107.504 75.35 107.504 78.266C107.504 81.092 109.34 83.288 112.094 83.288ZM112.076 81.776C110.258 81.776 109.25 80.372 109.25 78.266C109.25 76.178 110.258 74.774 112.076 74.774C113.894 74.774 114.902 76.178 114.902 78.266C114.902 80.372 113.894 81.776 112.076 81.776ZM126.096 83H128.058L131.784 71.192L135.51 83H137.472L141.27 69.32H139.254L136.482 80.858L132.936 69.32H130.632L127.086 80.858L124.314 69.32H122.298L126.096 83ZM145.578 83.288C148.206 83.288 149.592 81.542 149.772 80.264H148.044C147.792 80.93 146.928 81.776 145.578 81.776C143.94 81.776 143.022 80.642 142.86 78.896L149.772 78.878V77.402C149.772 74.9 147.99 73.262 145.506 73.262C142.716 73.262 141.078 75.332 141.078 78.248C141.078 81.11 142.644 83.288 145.578 83.288ZM142.878 77.492C142.878 75.62 144.084 74.774 145.488 74.774C146.892 74.774 148.044 75.62 148.044 77.492H142.878ZM155.545 83.288C158.173 83.288 159.559 81.542 159.739 80.264H158.011C157.759 80.93 156.895 81.776 155.545 81.776C153.907 81.776 152.989 80.642 152.827 78.896L159.739 78.878V77.402C159.739 74.9 157.957 73.262 155.473 73.262C152.683 73.262 151.045 75.332 151.045 78.248C151.045 81.11 152.611 83.288 155.545 83.288ZM152.845 77.492C152.845 75.62 154.051 74.774 155.455 74.774C156.859 74.774 158.011 75.62 158.011 77.492H152.845ZM168.932 83L164.864 78.266L168.572 73.55H166.556L163.298 77.69V69.32H161.552V83H163.298V78.788L166.916 83H168.932Z" fill="white"/>
</svg>
